# xmcd
#
# Track frame offsets: 
#        150
#        16284
#        28826
#        41819
#        50351
#        59731
#        72736
#        85959
#        100912
#        118672
#        127736
#        143578
#
# Disc length: 2113 seconds
#
# Revision: 0
# Processed by: cddbd v1.5.2PL0 Copyright (c) Steve Scherf et al.
# Submitted via: ExactAudioCopyFreeDBPlugin 1.0
#
DISCID=ab083f0c
DTITLE=Hellbound Glory - Old Highs and New Lows
DYEAR=2009
DGENRE=Country
TTITLE0=Another Bender Might Break Me
TTITLE1=Gettin' High and Hittin' New Lows
TTITLE2=Be My Crutch
TTITLE3=One Way Track Marks
TTITLE4=Hank Williams Records
TTITLE5=Either Way We're Fucked
TTITLE6=Why Take The Pain
TTITLE7=Hard Livin' Man
TTITLE8=Slow Suicide
TTITLE9=In the Gutter Again
TTITLE10=Too Broke To Overdose
TTITLE11=I'm Leavin' Now (Long Gone Daddy)
EXTD=
EXTT0=
EXTT1=
EXTT2=
EXTT3=
EXTT4=
EXTT5=
EXTT6=
EXTT7=
EXTT8=
EXTT9=
EXTT10=
EXTT11=
PLAYORDER=
